# xmcd
# 
# Track frame offsets:
#     150
#     11922
#     25555
#     36775
#     54535
#     71647
#     83100
#     99120
#     112842
#     126632
#     141585
#     160210
#     174410
#     194695
#     205977
#     217490
# 
# Disc length: 3109
# 
# Revision: 5
# Processed by: cddbd v1.5.2PL0 Copyright (c) Steve Scherf et al.
# Submitted via: fre:ac v1.0.17
# 
DISCID=ed0c2310
DTITLE=Kenny G - The Greatest Holiday Classics
DYEAR=2005
DGENRE=Holiday
TTITLE0=We Wish you a Merry Christmas
TTITLE1=Deck the Halls - 12 Days of Christmas
TTITLE2=Joy to the World
TTITLE3=Have Yourself a Merry Little Christmas
TTITLE4=Sleigh Ride
TTITLE5=Miracles
TTITLE6=Jingle Bell Rock
TTITLE7=White Christmas
TTITLE8=Winter Wonderland
TTITLE9=My Favorite Things
TTITLE10=We Three Kings - Carol of the Bells
TTITLE11=Let it Snow
TTITLE12=Ave Maria
TTITLE13=The Chanukah Song
TTITLE14=Jingle Bells
TTITLE15=I'll Be Home for Christmas
EXTD=YEAR: 2005
EXTT0=
EXTT1=
EXTT2=
EXTT3=
EXTT4=
EXTT5=
EXTT6=
EXTT7=
EXTT8=
EXTT9=
EXTT10=
EXTT11=
EXTT12=
EXTT13=
EXTT14=
EXTT15=
PLAYORDER=
